<svg xmlns="http://www.w3.org/2000/svg" width="764" height="704" version="1.1">
  <path d="M353 76a288 288 0 0 0-166 506l5 4 1-10c6-52 28-89 64-107 6-3 6-3 6-10-3-27-35-38-59-20-6 4-7 4-5-4 4-18-5-44-15-44-6 0-32 35-44 58-7 14-6 15-14-9-34-102 5-238 83-292l7-5a283 283 0 0 1 126-55 302 302 0 0 1 122 10c109 30 200 157 190 264l-1 14a277 277 0 0 1-19 80 274 274 0 0 1-246 169c-13 0-13 0-21-12l-12 4c-27 10-39 13-59 16-17 3-18 3 0 8a310 310 0 0 0 129 7 288 288 0 0 0-72-572m103 50c-1 9-8 18-16 23l-4 2 4 3c9 4 16 12 19 22 1 4 1 4 3-1 2-11 8-19 15-23 5-3 6-4 3-4-6 0-19-14-21-22-1-4-2-5-3 0m-225 51c-13 43-4 94 22 118 15 13 51 27 84 33a884 884 0 0 1 36 6c38 7 57 14 71 27 4 3 4 3 0 5-23 9-49 2-58-17-1-3-1-3-11-4-108-13-160-49-172-119-2-8-2-8-4-3-17 31-18 77-3 104l13 18c8 0-24 18-44 24-8 3-8 4-2 5 26 3 46 21 47 42v8l7-2c25-9 52 7 54 33 0 9 0 9 11 6 92-28 165 3 179 76 2 11 2 11 12 4 27-17 39-51 20-54-23-3-40-13-69-42-23-22-39-33-54-40-9-3-9-3-8-4 5-4 66-7 87-3 37 6 55 19 62 42 1 6 1 6 6 3 27-20 35-58 19-87-4-8-4-8-12-5-29 10-57-5-63-34-1-9-2-9-4-9-32 7-60-9-68-37-2-6-2-6-8-4-47 16-100-7-126-55l-6-11c-3-5-10-22-12-30-2-6-2-5-6 6m301 3c-2 10-8 19-17 24-3 2-3 2 1 4 9 4 16 13 19 23 2 5 2 5 2 1 2-10 10-22 17-26 5-2 5-2 0-5-9-4-14-10-20-24-1-2-1-2-2 3m-78 49c-2 7-8 16-15 21l-5 3 5 2c8 4 14 12 18 22l2 5 1-6c4-11 10-19 17-23 4-2 4-2 0-4-9-4-18-14-20-22 0-4-2-4-3 2m-47 177c9 5 19 14 31 29 16 20 21 24 32 25 9 0 14-2 8-4-10-3-11-6-3-6 10-1 13-3 6-4-8-1-14-5-28-17-22-19-35-27-49-27-4 0-4 0 3 4m-76 56c-50 5-81 18-101 44-5 7-5 8 7 17 23 18 62 28 98 23l9-1v-11c0-28 7-52 21-65l4-7h-38m-114 68c-8 16-14 44-14 63 0 2 18 15 37 25 20 11 66 7 111-11l10-5-3-6c-4-9-7-20-10-31-2-9-2-9-5-9-40 9-99-6-120-30-3-3-3-3-6 4" stroke="none" fill="#daa1ff" fill-rule="evenodd"/>
</svg>
